<svg width="28" height="28" viewBox="0 0 28 28" fill="none" xmlns="http://www.w3.org/2000/svg">
<path d="M18.667 9.33325V6.33325C18.667 4.12411 16.5776 2.33325 14.0003 2.33325C11.423 2.33325 9.33362 4.12411 9.33362 6.33325V9.33325M13.3783 25.6666H14.6212C17.3118 25.6666 18.6571 25.6666 19.7647 25.188C20.7415 24.7658 21.5842 24.0846 22.2016 23.2179C22.9017 22.2352 23.1836 20.9198 23.7473 18.2889L24.215 16.1066C24.7117 13.7885 24.9601 12.6295 24.6554 11.7207C24.3883 10.9239 23.8433 10.2497 23.1201 9.82154C22.2954 9.33325 21.11 9.33325 18.7393 9.33325H9.26018C6.88945 9.33325 5.70409 9.33325 4.87937 9.82154C4.15616 10.2497 3.61118 10.9239 3.34403 11.7207C3.03938 12.6295 3.28775 13.7885 3.78449 16.1066L4.25211 18.2889C4.81588 20.9198 5.09777 22.2352 5.79782 23.2179C6.41524 24.0846 7.25797 24.7658 8.23477 25.188C9.3423 25.6666 10.6876 25.6666 13.3783 25.6666Z" stroke="#8168F0" stroke-width="2" stroke-linecap="round" stroke-linejoin="round"/>
</svg>
